# xmcd
#
# Track frame offsets:
#	150
#	12163
#	18866
#	28501
#	37627
#	43077
#	61877
#	69490
#	81537
#	88511
#	98784
#	108029
#	125317
#	134482
#	149187
#	169496
#	185334
#	207127
#	214772
#	230721
#	242984
#	252152
#	271880
#	277276
#	284092
#
# Disc length: 3951 seconds
#
# Revision: 1
# Processed by: cddbd v1.5.1PL0 Copyright (c) Steve Scherf et al.
# Submitted via: CDex 1.50Beta5
#
DISCID=750f6d19
DTITLE=LiAR soft - しっぽ
DYEAR=1900
DGENRE=Soundtrack
TTITLE0=城戸千絵/The Theme of Love Negotiator '99 soul ver. another mix
TTITLE1=ほほえみの猫曜日
TTITLE2=雨の午後の犬
TTITLE3=カモちゃん's Boogie!
TTITLE4=のんびりうっかりぼんやり
TTITLE5=セイファート
TTITLE6=ファニーターキー
TTITLE7=翠の森arrange ver.
TTITLE8=あわあわわたわた
TTITLE9=森の扉
TTITLE10=愛慾に光る
TTITLE11=長崎みなみ/見つめて☆新選組フルコーラス
TTITLE12=だぁいぴんち!
TTITLE13=CANNONBALL remix
TTITLE14=樹里のテェマ arrange ver.
TTITLE15=城戸千絵&谷志保子/舷窓の乙女達
TTITLE16=キャットインヘル
TTITLE17=flat smile girl
TTITLE18=乾坤一擲
TTITLE19=エクソダス
TTITLE20=推理論『珈琲思考』
TTITLE21=ギャンブラー
TTITLE22=盲点。
TTITLE23=しっぽ遊戯
TTITLE24=ぶるまー少年少女合唱団[Rita・流対]/ぶるまー2000のうた
EXTD=
EXTT0=
EXTT1=
EXTT2=
EXTT3=
EXTT4=
EXTT5=
EXTT6=
EXTT7=
EXTT8=
EXTT9=
EXTT10=
EXTT11=
EXTT12=
EXTT13=
EXTT14=
EXTT15=
EXTT16=
EXTT17=
EXTT18=
EXTT19=
EXTT20=
EXTT21=
EXTT22=
EXTT23=
EXTT24=
PLAYORDER=
